<?xml version="1.0" encoding="UTF-8"?>
<!DOCTYPE svg PUBLIC "-//W3C//DTD SVG 1.1//EN" "http://www.w3.org/Graphics/SVG/1.1/DTD/svg11.dtd">
<svg xmlns="http://www.w3.org/2000/svg" version="1.1" width="204px" height="192px" style="shape-rendering:geometricPrecision; text-rendering:geometricPrecision; image-rendering:optimizeQuality; fill-rule:evenodd; clip-rule:evenodd" xmlns:xlink="http://www.w3.org/1999/xlink">
<g><path style="opacity:1" fill="#fbfbfc" d="M -0.5,-0.5 C 10.5,-0.5 21.5,-0.5 32.5,-0.5C 31.314,1.19416 31.4807,2.86082 33,4.5C 35.032,7.52537 37.3653,10.192 40,12.5C 43.4912,10.4186 46.8245,8.08526 50,5.5C 50.322,3.31114 49.822,1.31114 48.5,-0.5C 50.5,-0.5 52.5,-0.5 54.5,-0.5C 55.5,2.16667 56.5,2.16667 57.5,-0.5C 106.167,-0.5 154.833,-0.5 203.5,-0.5C 203.5,30.8333 203.5,62.1667 203.5,93.5C 201.618,90.782 199.285,90.1153 196.5,91.5C 194.11,91.6848 193.11,93.0182 193.5,95.5C 193.833,99.9894 196.167,101.489 200.5,100C 201.691,99.3021 202.691,98.4687 203.5,97.5C 203.5,128.833 203.5,160.167 203.5,191.5C 191.167,191.5 178.833,191.5 166.5,191.5C 167.871,189.741 168.871,187.741 169.5,185.5C 151.368,181.938 133.034,178.938 114.5,176.5C 113.5,176.667 112.5,176.833 111.5,177C 116.395,182.064 121.395,186.897 126.5,191.5C 84.1667,191.5 41.8333,191.5 -0.5,191.5C -0.5,127.5 -0.5,63.5 -0.5,-0.5 Z"/></g>
<g><path style="opacity:1" fill="#132f83" d="M 32.5,-0.5 C 37.8333,-0.5 43.1667,-0.5 48.5,-0.5C 49.822,1.31114 50.322,3.31114 50,5.5C 46.8245,8.08526 43.4912,10.4186 40,12.5C 37.3653,10.192 35.032,7.52537 33,4.5C 31.4807,2.86082 31.314,1.19416 32.5,-0.5 Z"/></g>
<g><path style="opacity:1" fill="#25348a" d="M 54.5,-0.5 C 55.5,-0.5 56.5,-0.5 57.5,-0.5C 56.5,2.16667 55.5,2.16667 54.5,-0.5 Z"/></g>
<g><path style="opacity:1" fill="#132f83" d="M 70.5,1.5 C 75.1502,3.62858 79.1502,6.79524 82.5,11C 79.6397,13.3603 76.6397,15.527 73.5,17.5C 69.8333,14.5 66.5,11.1667 63.5,7.5C 65.878,5.448 68.2113,3.448 70.5,1.5 Z"/></g>
<g><path style="opacity:1" fill="#1c3286" d="M 26.5,7.5 C 29.9492,10.1191 32.9492,13.2858 35.5,17C 31.9729,19.5908 28.3062,21.5908 24.5,23C 25.4599,17.9123 26.1266,12.7457 26.5,7.5 Z"/></g>
<g><path style="opacity:1" fill="#133083" d="M 55.5,12.5 C 59.6424,14.1195 63.1424,16.7862 66,20.5C 66.6667,21.5 66.6667,22.5 66,23.5C 58.9207,28.6232 51.754,33.6232 44.5,38.5C 43.1667,32.5 43.1667,26.5 44.5,20.5C 48.4112,18.0566 52.0779,15.3899 55.5,12.5 Z"/></g>
<g><path style="opacity:1" fill="#153184" d="M 86.5,18.5 C 88.371,18.8588 89.871,19.8588 91,21.5C 92.9665,24.601 94.7998,27.7676 96.5,31C 94.2019,33.5929 91.7019,36.0929 89,38.5C 85.6377,33.9702 82.4711,29.3035 79.5,24.5C 81.878,22.448 84.2113,20.448 86.5,18.5 Z"/></g>
<g><path style="opacity:1" fill="#102d82" d="M 36.5,26.5 C 36.6662,32.8421 36.4995,39.1754 36,45.5C 35.2828,46.0442 34.7828,46.7109 34.5,47.5C 32.2459,48.4151 30.2459,49.7484 28.5,51.5C 26.9769,46.2912 25.9769,40.9579 25.5,35.5C 25.5288,33.9707 26.1955,32.804 27.5,32C 30.5279,30.1555 33.5279,28.3222 36.5,26.5 Z"/></g>
<g><path style="opacity:1" fill="#adb6d1" d="M 36.5,26.5 C 37.654,32.987 37.8206,39.6536 37,46.5C 36.3292,47.2524 35.4959,47.5858 34.5,47.5C 34.7828,46.7109 35.2828,46.0442 36,45.5C 36.4995,39.1754 36.6662,32.8421 36.5,26.5 Z"/></g>
<g><path style="opacity:1" fill="#143083" d="M 70.5,29.5 C 72.0174,29.5106 73.1841,30.1772 74,31.5C 76.5153,35.3437 79.0153,39.177 81.5,43C 73.6332,49.5219 65.4665,55.6885 57,61.5C 52.9007,57.1186 50.234,52.1186 49,46.5C 56.6412,41.3503 63.8079,35.6836 70.5,29.5 Z"/></g>
<g><path style="opacity:1" fill="#1c3486" d="M 100.5,40.5 C 103.167,45.6603 105.167,51.1603 106.5,57C 104.679,60.1542 102.179,62.6542 99,64.5C 96.3994,58.3335 94.7327,52.0002 94,45.5C 96.352,43.9697 98.5187,42.3031 100.5,40.5 Z"/></g>
<g><path style="opacity:1" fill="#122f83" d="M 84.5,51.5 C 85.7899,52.0577 86.6232,53.0577 87,54.5C 88.2201,59.2694 89.7201,63.9361 91.5,68.5C 85.4229,74.238 78.7563,79.238 71.5,83.5C 67.7786,79.1117 64.4453,74.4451 61.5,69.5C 69.0156,63.25 76.6822,57.25 84.5,51.5 Z"/></g>
<g><path style="opacity:1" fill="#163184" d="M 38.5,53.5 C 40.5922,53.5614 42.0922,54.5614 43,56.5C 44.8333,60.1667 46.6667,63.8333 48.5,67.5C 45.2444,69.7113 42.0777,72.0446 39,74.5C 36.0455,69.8852 33.5455,65.0518 31.5,60C 33.8052,57.8396 36.1385,55.6729 38.5,53.5 Z"/></g>
<g><path style="opacity:1" fill="#132e83" d="M 107.5,67.5 C 109.774,72.4884 111.774,77.8217 113.5,83.5C 110.914,85.0426 108.414,86.7093 106,88.5C 104.362,83.9197 102.529,79.4197 100.5,75C 102.804,72.5054 105.137,70.0054 107.5,67.5 Z"/></g>
<g><path style="opacity:1" fill="#102b82" d="M 62.5,86.5 C 56.9327,87.804 51.266,87.804 45.5,86.5C 45.4894,84.9826 44.8228,83.8159 43.5,83C 46.1306,80.0234 49.1306,77.5234 52.5,75.5C 55.8554,79.1867 59.1887,82.8534 62.5,86.5 Z"/></g>
<g><path style="opacity:1" fill="#1b2d84" d="M 92.5,78.5 C 94.8506,80.8413 95.8506,83.8413 95.5,87.5C 90.8215,87.6658 86.1548,87.4992 81.5,87C 85.2355,84.1467 88.9021,81.3133 92.5,78.5 Z"/></g>
<g><path style="opacity:1" fill="#a5afcd" d="M 45.5,86.5 C 51.266,87.804 56.9327,87.804 62.5,86.5C 63.0431,86.56 63.3764,86.8933 63.5,87.5C 60.5,87.8333 57.5,88.1667 54.5,88.5C 51.0866,88.483 48.0866,87.8164 45.5,86.5 Z"/></g>
<g><path style="opacity:1" fill="#c4c4c4" d="M 39.5,93.5 C 39.2027,100.92 39.536,108.254 40.5,115.5C 37.728,116.767 35.0613,116.767 32.5,115.5C 34.604,115.799 36.604,115.466 38.5,114.5C 38.1373,113.817 37.8039,113.15 37.5,112.5C 38.1667,106.167 38.8333,99.8333 39.5,93.5 Z"/></g>
<g><path style="opacity:1" fill="#adabad" d="M 158.5,93.5 C 159.492,100.982 159.825,108.648 159.5,116.5C 156.941,116.802 154.607,116.468 152.5,115.5C 154.5,115.5 156.5,115.5 158.5,115.5C 158.5,108.167 158.5,100.833 158.5,93.5 Z"/></g>
<g><path style="opacity:1" fill="#1c1a1c" d="M 37.5,112.5 C 37.8039,113.15 38.1373,113.817 38.5,114.5C 36.604,115.466 34.604,115.799 32.5,115.5C 30.003,110.953 26.003,109.286 20.5,110.5C 17.5,110.667 14.5,110.833 11.5,111C 9.192,114.805 5.85866,116.138 1.5,115C 7.02424,108.31 12.3576,101.477 17.5,94.5C 19.5,93.1667 21.5,93.1667 23.5,94.5C 27.8393,100.829 32.506,106.829 37.5,112.5 Z"/></g>
<g><path style="opacity:1" fill="#161116" d="M 39.5,93.5 C 41.5,93.5 43.5,93.5 45.5,93.5C 45.5,99.1667 45.5,104.833 45.5,110.5C 51.8333,110.5 58.1667,110.5 64.5,110.5C 64.5,112.167 64.5,113.833 64.5,115.5C 56.8333,115.5 49.1667,115.5 41.5,115.5C 41.1667,115.5 40.8333,115.5 40.5,115.5C 39.536,108.254 39.2027,100.92 39.5,93.5 Z"/></g>
<g><path style="opacity:1" fill="#171317" d="M 76.5,115.5 C 74.1667,115.5 71.8333,115.5 69.5,115.5C 69.8214,109.974 69.4881,104.64 68.5,99.5C 64.1667,99.5 59.8333,99.5 55.5,99.5C 55.5,97.5 55.5,95.5 55.5,93.5C 66.8333,93.5 78.1667,93.5 89.5,93.5C 89.5,95.5 89.5,97.5 89.5,99.5C 85.1667,99.5 80.8333,99.5 76.5,99.5C 76.5,104.833 76.5,110.167 76.5,115.5 Z"/></g>
<g><path style="opacity:1" fill="#1a161a" d="M 119.5,114.5 C 117.393,115.468 115.059,115.802 112.5,115.5C 109.916,111.496 106.083,109.829 101,110.5C 98.1667,110.667 95.3333,110.833 92.5,111C 91.2668,112.667 89.9335,114.167 88.5,115.5C 85.9407,115.802 83.6074,115.468 81.5,114.5C 86.8885,108.083 92.0552,101.416 97,94.5C 100.525,92.8097 103.525,93.4764 106,96.5C 110.717,102.377 115.217,108.377 119.5,114.5 Z"/></g>
<g><path style="opacity:1" fill="#1a171b" d="M 122.5,93.5 C 124.527,93.3379 126.527,93.5045 128.5,94C 131.964,99.2954 135.964,104.129 140.5,108.5C 144.619,103.759 148.619,98.9255 152.5,94C 154.473,93.5045 156.473,93.3379 158.5,93.5C 158.5,100.833 158.5,108.167 158.5,115.5C 156.5,115.5 154.5,115.5 152.5,115.5C 152.665,112.482 152.498,109.482 152,106.5C 148.935,109.062 146.435,112.062 144.5,115.5C 141.894,116.652 139.227,116.818 136.5,116C 134.524,112.537 132.19,109.37 129.5,106.5C 129.44,105.957 129.107,105.624 128.5,105.5C 127.513,108.768 127.18,112.102 127.5,115.5C 125.833,115.5 124.167,115.5 122.5,115.5C 122.5,108.167 122.5,100.833 122.5,93.5 Z"/></g>
<g><path style="opacity:1" fill="#1b171b" d="M 168.5,115.5 C 165.941,115.802 163.607,115.468 161.5,114.5C 166.798,108.595 171.631,102.262 176,95.5C 179,92.8333 182,92.8333 185,95.5C 190.045,102.423 195.212,109.256 200.5,116C 197.833,116.667 195.167,116.667 192.5,116C 190.058,111.063 186.058,109.23 180.5,110.5C 175.178,109.377 171.178,111.044 168.5,115.5 Z"/></g>
<g><path style="opacity:1" fill="#6c6a6c" d="M 203.5,93.5 C 203.5,94.8333 203.5,96.1667 203.5,97.5C 202.691,98.4687 201.691,99.3021 200.5,100C 196.167,101.489 193.833,99.9894 193.5,95.5C 193.11,93.0182 194.11,91.6848 196.5,91.5C 199.285,90.1153 201.618,90.782 203.5,93.5 Z"/></g>
<g><path style="opacity:1" fill="#bdbcbd" d="M 196.5,91.5 C 201.607,91.7451 203.107,94.0784 201,98.5C 199.69,96.8678 199.19,95.2012 199.5,93.5C 198.459,95.9913 197.626,95.9913 197,93.5C 196.333,94.8333 196.333,96.1667 197,97.5C 198.131,96.3961 198.965,96.7295 199.5,98.5C 197.741,99.754 196.241,99.4206 195,97.5C 194.252,95.1599 194.752,93.1599 196.5,91.5 Z"/></g>
<g><path style="opacity:1" fill="#706f70" d="M 68.5,99.5 C 69.4881,104.64 69.8214,109.974 69.5,115.5C 71.8333,115.5 74.1667,115.5 76.5,115.5C 74.0521,116.473 71.3854,116.806 68.5,116.5C 68.5,110.833 68.5,105.167 68.5,99.5 Z"/></g>
<g><path style="opacity:1" fill="#d7d6d7" d="M 19.5,100.5 C 21.9118,100.694 22.9118,102.027 22.5,104.5C 17.8308,105.01 16.8308,103.677 19.5,100.5 Z"/></g>
<g><path style="opacity:1" fill="#b6b5b6" d="M 100.5,100.5 C 104.894,104.252 104.227,105.252 98.5,103.5C 99.1925,102.482 99.8592,101.482 100.5,100.5 Z"/></g>
<g><path style="opacity:1" fill="#b0afb0" d="M 180.5,100.5 C 184.894,104.252 184.227,105.252 178.5,103.5C 179.193,102.482 179.859,101.482 180.5,100.5 Z"/></g>
<g><path style="opacity:1" fill="#6b696b" d="M 122.5,93.5 C 122.5,100.833 122.5,108.167 122.5,115.5C 124.167,115.5 125.833,115.5 127.5,115.5C 127.18,112.102 127.513,108.768 128.5,105.5C 129.107,105.624 129.44,105.957 129.5,106.5C 128.521,109.625 128.187,112.958 128.5,116.5C 122.974,116.821 117.64,116.488 112.5,115.5C 115.059,115.802 117.393,115.468 119.5,114.5C 120.117,114.611 120.617,114.944 121,115.5C 121.171,107.989 121.671,100.655 122.5,93.5 Z"/></g>
<g><path style="opacity:1" fill="#818081" d="M 39.5,93.5 C 41.6074,92.5318 43.9407,92.1984 46.5,92.5C 46.5,98.1667 46.5,103.833 46.5,109.5C 52.8333,109.5 59.1667,109.5 65.5,109.5C 65.5,111.833 65.5,114.167 65.5,116.5C 57.3159,116.826 49.3159,116.492 41.5,115.5C 49.1667,115.5 56.8333,115.5 64.5,115.5C 64.5,113.833 64.5,112.167 64.5,110.5C 58.1667,110.5 51.8333,110.5 45.5,110.5C 45.5,104.833 45.5,99.1667 45.5,93.5C 43.5,93.5 41.5,93.5 39.5,93.5 Z"/></g>
<g><path style="opacity:1" fill="#777577" d="M 81.5,114.5 C 83.6074,115.468 85.9407,115.802 88.5,115.5C 85.9759,116.8 83.3092,116.8 80.5,115.5C 80.6236,114.893 80.9569,114.56 81.5,114.5 Z"/></g>
<g><path style="opacity:1" fill="#7b7a7b" d="M 161.5,114.5 C 163.607,115.468 165.941,115.802 168.5,115.5C 165.976,116.8 163.309,116.8 160.5,115.5C 160.624,114.893 160.957,114.56 161.5,114.5 Z"/></g>
<g><path style="opacity:1" fill="#a4a3a4" d="M 32.5,119.5 C 37.1585,119.015 38.4919,120.848 36.5,125C 35.2068,125.49 33.8734,125.657 32.5,125.5C 32.5,123.5 32.5,121.5 32.5,119.5 Z"/></g>
<g><path style="opacity:1" fill="#939293" d="M 197.5,119.5 C 201.274,119.484 202.274,121.15 200.5,124.5C 199.675,125.386 198.675,125.719 197.5,125.5C 197.5,123.5 197.5,121.5 197.5,119.5 Z"/></g>
<g><path style="opacity:1" fill="#8e8e8e" d="M 13.5,119.5 C 15.9076,120.315 16.7409,121.981 16,124.5C 15,123.167 14,123.167 13,124.5C 12.6155,122.803 12.7822,121.137 13.5,119.5 Z"/></g>
<g><path style="opacity:1" fill="#919091" d="M 22.5,119.5 C 23.8333,119.5 25.1667,119.5 26.5,119.5C 26.6602,121.199 26.4935,122.866 26,124.5C 24.6054,123.185 23.6054,123.519 23,125.5C 22.5045,123.527 22.3379,121.527 22.5,119.5 Z"/></g>
<g><path style="opacity:1" fill="#abaaab" d="M 61.5,119.5 C 66.1585,119.015 67.4919,120.848 65.5,125C 60.7282,125.81 59.3948,123.977 61.5,119.5 Z"/></g>
<g><path style="opacity:1" fill="#9f9e9f" d="M 72.5,119.5 C 73.8333,119.5 75.1667,119.5 76.5,119.5C 76.6621,121.527 76.4955,123.527 76,125.5C 74.9826,122.972 73.8159,122.972 72.5,125.5C 71.3058,123.484 71.3058,121.484 72.5,119.5 Z"/></g>
<g><path style="opacity:1" fill="#a7a7a7" d="M 130.5,119.5 C 132.017,119.511 133.184,120.177 134,121.5C 134.308,120.692 134.808,120.025 135.5,119.5C 136.833,121.5 136.833,123.5 135.5,125.5C 134.522,125.023 133.689,124.357 133,123.5C 132.692,124.308 132.192,124.975 131.5,125.5C 130.534,123.604 130.201,121.604 130.5,119.5 Z"/></g>
<g><path style="opacity:1" fill="#868686" d="M 5.5,119.5 C 6.61295,120.946 6.77961,122.613 6,124.5C 4.66667,123.167 3.33333,123.167 2,124.5C 0.912067,121.508 1.57873,120.508 4,121.5C 5.02992,121.164 5.52992,120.497 5.5,119.5 Z"/></g>
<g><path style="opacity:1" fill="#959495" d="M 142.5,119.5 C 143.978,119.238 145.311,119.571 146.5,120.5C 145.726,121.711 144.893,121.711 144,120.5C 143.308,121.025 142.808,121.692 142.5,122.5C 143.601,124.394 144.934,125.061 146.5,124.5C 141.733,125.899 140.4,124.232 142.5,119.5 Z"/></g>
<g><path style="opacity:1" fill="#908f90" d="M 188.5,119.5 C 189.5,119.5 190.5,119.5 191.5,119.5C 191.5,121.5 191.5,123.5 191.5,125.5C 187.556,125.116 186.556,123.116 188.5,119.5 Z"/></g>
<g><path style="opacity:1" fill="#8d8d8d" d="M 82.5,119.5 C 83.8734,119.343 85.2068,119.51 86.5,120C 85.636,121.137 84.636,122.47 83.5,124C 87.2259,125.043 86.8926,125.543 82.5,125.5C 82.5,123.5 82.5,121.5 82.5,119.5 Z"/></g>
<g><path style="opacity:1" fill="#959495" d="M 179.5,119.5 C 182.513,120.356 183.18,122.189 181.5,125C 180.552,125.483 179.552,125.649 178.5,125.5C 178.325,123.379 178.659,121.379 179.5,119.5 Z"/></g>
<g><path style="opacity:1" fill="#122f83" d="M 141.5,127.5 C 146.647,132.816 151.647,138.316 156.5,144C 154.32,147.679 151.32,150.513 147.5,152.5C 142.157,147.156 137.157,141.489 132.5,135.5C 135.52,132.811 138.52,130.144 141.5,127.5 Z"/></g>
<g><path style="opacity:1" fill="#173084" d="M 127.5,136.5 C 131.437,140.451 135.104,144.784 138.5,149.5C 129.849,150.241 121.182,150.074 112.5,149C 117.982,145.346 122.982,141.179 127.5,136.5 Z"/></g>
<g><path style="opacity:1" fill="#143083" d="M 167.5,165.5 C 167.41,168.152 168.076,170.485 169.5,172.5C 169.785,174.288 169.452,175.955 168.5,177.5C 161.275,175.841 153.942,174.841 146.5,174.5C 146.523,169.126 147.023,163.793 148,158.5C 152.033,155.636 156.199,152.969 160.5,150.5C 163.654,155.141 165.988,160.141 167.5,165.5 Z"/></g>
<g><path style="opacity:1" fill="#122f83" d="M 104.5,153.5 C 108.81,154.08 113.143,154.414 117.5,154.5C 117.5,159.167 117.5,163.833 117.5,168.5C 114.482,168.665 111.482,168.498 108.5,168C 106.151,164.323 103.818,160.656 101.5,157C 102.071,155.401 103.071,154.234 104.5,153.5 Z"/></g>
<g><path style="opacity:1" fill="#183185" d="M 123.5,155.5 C 128.855,156.057 134.188,156.724 139.5,157.5C 140.395,162.474 140.395,167.474 139.5,172.5C 134.167,172.167 128.833,171.833 123.5,171.5C 123.5,166.167 123.5,160.833 123.5,155.5 Z"/></g>
<g><path style="opacity:1" fill="#8390bb" d="M 167.5,165.5 C 168.924,167.515 169.59,169.848 169.5,172.5C 168.076,170.485 167.41,168.152 167.5,165.5 Z"/></g>
<g><path style="opacity:1" fill="#0f2e82" d="M 166.5,191.5 C 153.167,191.5 139.833,191.5 126.5,191.5C 121.395,186.897 116.395,182.064 111.5,177C 112.5,176.833 113.5,176.667 114.5,176.5C 133.034,178.938 151.368,181.938 169.5,185.5C 168.871,187.741 167.871,189.741 166.5,191.5 Z"/></g>
</svg>
